<svg width="22" height="22" viewBox="0 0 22 22" fill="none" xmlns="http://www.w3.org/2000/svg">
<g clip-path="url(#clip0)">
<path d="M15.8113 22C15.1012 22 14.397 21.8745 13.7085 21.6243C10.6751 20.5224 7.85946 18.7276 5.56588 16.4341C3.2723 14.1406 1.47757 11.3249 0.375684 8.29151C0.0215936 7.31668 -0.0829021 6.31039 0.0652051 5.30049C0.203945 4.35453 0.570368 3.4362 1.1249 2.64475C1.68188 1.84981 2.42444 1.18864 3.27226 0.732716C4.17637 0.246545 5.16319 0 6.2054 0C6.52954 0 6.80969 0.226479 6.87762 0.543404L7.95669 5.57909C8.00555 5.80712 7.93547 6.04438 7.7706 6.20929L5.92676 8.05309C7.66615 11.5113 10.4886 14.3337 13.9468 16.0731L15.7906 14.2293C15.9555 14.0644 16.1928 13.9944 16.4208 14.0432L21.4565 15.1223C21.7735 15.1902 21.9999 15.4704 21.9999 15.7945C21.9999 16.8367 21.7533 17.8236 21.2671 18.7277C20.8112 19.5755 20.15 20.3181 19.3551 20.875C18.5637 21.4296 17.6454 21.796 16.6994 21.9347C16.4029 21.9783 16.1065 22 15.8113 22ZM5.65611 1.40502C4.28138 1.55678 3.06121 2.27734 2.25094 3.43379C1.33978 4.73419 1.12731 6.33363 1.668 7.8221C3.78645 13.6538 8.34614 18.2135 14.1779 20.332C15.6663 20.8727 17.2657 20.6602 18.5662 19.749C19.7226 18.9388 20.4432 17.7186 20.595 16.3439L16.4984 15.4661L14.5728 17.3917C14.3679 17.5966 14.0566 17.651 13.7944 17.5278C9.70437 15.6063 6.39368 12.2956 4.4722 8.20558C4.34901 7.94335 4.40341 7.63201 4.60832 7.42714L6.53393 5.50154L5.65611 1.40502Z" fill="white"/>
</g>
<defs>
<clipPath id="clip0">
<rect width="22" height="22" fill="white"/>
</clipPath>
</defs>
</svg>
